HIERARCHY
ROOT joint_Root
{
	OFFSET 0.0 0.0 0.0
	CHANNELS 6 Xposition Yposition Zposition Zrotation Xrotation Yrotation 
	JOINT Hips
	{
		OFFSET -0.726466 93.3139 -2.00062
		CHANNELS 6 Xposition Yposition Zposition Zrotation Xrotation Yrotation 
		JOINT Spine
		{
			OFFSET 15.7357 0.0 0.0
			CHANNELS 6 Xposition Yposition Zposition Zrotation Xrotation Yrotation 
			JOINT Chest
			{
				OFFSET 8.98455 -0.406207 0.0
				CHANNELS 6 Xposition Yposition Zposition Zrotation Xrotation Yrotation 
				JOINT Neck
				{
					OFFSET 16.3773 0.0 0.0
					CHANNELS 6 Xposition Yposition Zposition Zrotation Xrotation Yrotation 
					JOINT Head
					{
						OFFSET 6.45672 0.0 0.0
						CHANNELS 6 Xposition Yposition Zposition Zrotation Xrotation Yrotation 
						End Site
						{
							OFFSET 0.0 0.0 0.0
						}
					}
				}
				JOINT Shoulder_L
				{
					OFFSET 12.9942 -0.242716 4.98039
					CHANNELS 6 Xposition Yposition Zposition Zrotation Xrotation Yrotation 
					JOINT UpperArm_L
					{
						OFFSET 5.34809 0.0 0.0
						CHANNELS 6 Xposition Yposition Zposition Zrotation Xrotation Yrotation 
						JOINT LowerArm_L
						{
							OFFSET 24.3286 1.87007e-05 0.0
							CHANNELS 6 Xposition Yposition Zposition Zrotation Xrotation Yrotation 
							JOINT Hand_L
							{
								OFFSET 22.2916 0.0 0.0
								CHANNELS 6 Xposition Yposition Zposition Zrotation Xrotation Yrotation 
								End Site
								{
									OFFSET 0.0 0.0 0.0
								}
							}
						}
					}
				}
				JOINT Shoulder_R
				{
					OFFSET 12.9945 -0.242716 -4.98039
					CHANNELS 6 Xposition Yposition Zposition Zrotation Xrotation Yrotation 
					JOINT UpperArm_R
					{
						OFFSET -5.34813 0.0 0.0
						CHANNELS 6 Xposition Yposition Zposition Zrotation Xrotation Yrotation 
						JOINT LowerArm_R
						{
							OFFSET -24.3289 0.000322201 0.0
							CHANNELS 6 Xposition Yposition Zposition Zrotation Xrotation Yrotation 
							JOINT Hand_R
							{
								OFFSET -22.2915 -0.000108084 0.0
								CHANNELS 6 Xposition Yposition Zposition Zrotation Xrotation Yrotation 
								End Site
								{
									OFFSET 0.0 0.0 0.0
								}
							}
						}
					}
				}
			}
		}
		JOINT UpperLeg_L
		{
			OFFSET -2.19248 -6.46944 0.0
			CHANNELS 6 Xposition Yposition Zposition Zrotation Xrotation Yrotation 
			JOINT LowerLeg_L
			{
				OFFSET 39.0811 0.0 -1.23785e-05
				CHANNELS 6 Xposition Yposition Zposition Zrotation Xrotation Yrotation 
				JOINT Foot_L
				{
					OFFSET 40.9854 0.0 -1.26872e-05
					CHANNELS 6 Xposition Yposition Zposition Zrotation Xrotation Yrotation 
					JOINT Toes_L
					{
						OFFSET 11.7543 0.0 0.0
						CHANNELS 6 Xposition Yposition Zposition Zrotation Xrotation Yrotation 
						End Site
						{
							OFFSET 0.0 0.0 0.0
						}
					}
				}
			}
		}
		JOINT UpperLeg_R
		{
			OFFSET -2.19251 6.46944 0.0
			CHANNELS 6 Xposition Yposition Zposition Zrotation Xrotation Yrotation 
			JOINT LowerLeg_R
			{
				OFFSET -39.0811 -0.00228153 -0.0401928
				CHANNELS 6 Xposition Yposition Zposition Zrotation Xrotation Yrotation 
				JOINT Foot_R
				{
					OFFSET -40.9854 0.0 0.0
					CHANNELS 6 Xposition Yposition Zposition Zrotation Xrotation Yrotation 
					JOINT Toes_R
					{
						OFFSET -11.7543 0.0 0.0
						CHANNELS 6 Xposition Yposition Zposition Zrotation Xrotation Yrotation 
						End Site
						{
							OFFSET 0.0 0.0 0.0
						}
					}
				}
			}
		}
	}
}
MOTION
Frames:	6
Frame Time:	0.0333333
0.000000 0.000000 0.000000 0.000000 0.000000 -0.000000 -0.961907 92.761400 1.305390 89.266000 -2.328240 1.494370 15.735700 0.000005 -0.000001 97.707000 86.694400 -97.813000 8.984550 -0.406207 -0.000000 -1.213760 0.894729 -0.202363 16.377300 -0.000001 -0.000001 1.618860 -2.933870 3.285720 6.456720 -0.000001 -0.000000 8.859400 -2.262530 -3.871290 12.994200 -0.242716 4.980390 -90.285900 0.884191 -72.080000 5.348090 -0.000007 -0.000001 -66.623800 39.253700 -13.911900 24.328600 0.000019 0.000005 5.200280 11.509500 -24.515200 22.291600 -0.000001 0.000005 5.298880 5.444440 -4.446610 12.994500 -0.242716 -4.980390 87.730400 7.601350 -73.320900 -5.348130 -0.000001 -0.000004 -62.393300 39.863000 -13.594700 -24.328900 0.000322 -0.000009 4.933520 10.850900 -24.636400 -22.291500 -0.000108 -0.000004 8.925730 5.284280 0.510737 -2.192480 -6.469440 -0.000000 -176.353000 -8.942300 -1.776130 39.081100 -0.000007 -0.000012 -0.076197 0.243839 17.353300 40.985400 -0.000006 -0.000013 -0.768864 4.221420 -64.121700 11.754300 -0.000000 0.000003 -0.000001 -0.000014 -16.578000 -2.192510 6.469440 -0.000001 178.477000 12.452700 -178.954000 -39.081100 -0.002282 -0.040193 -0.061424 0.253391 14.335500 -40.985400 0.000008 0.000006 1.017040 7.042510 -64.071700 -11.754300 -0.000006 -0.000006 -0.004347 -0.054999 -18.810500
0.000000 0.000000 0.000000 0.000000 0.000000 -0.000000 -0.968371 92.762300 1.250850 89.248300 -2.303680 1.463080 15.735700 0.000005 -0.000001 97.064000 86.717600 -97.166300 8.984550 -0.406207 -0.000000 -1.250310 0.815204 -0.195483 16.377300 -0.000001 -0.000001 1.678080 -2.944170 3.275810 6.456720 -0.000001 -0.000000 8.644370 -2.216950 -3.865420 12.994200 -0.242716 4.980390 -90.381200 1.164170 -71.869400 5.348090 -0.000007 -0.000001 -64.043100 38.080000 -15.307400 24.328600 0.000019 0.000005 6.955100 13.254100 -28.013700 22.291600 -0.000001 0.000005 4.004710 5.448850 -4.598130 12.994500 -0.242716 -4.980390 87.689100 7.543080 -72.911900 -5.348130 -0.000001 -0.000004 -59.961300 39.669800 -15.137000 -24.328900 0.000322 -0.000009 5.932170 10.689800 -29.260700 -22.291500 -0.000108 -0.000004 7.536760 5.288060 0.402281 -2.192480 -6.469440 -0.000000 -176.337000 -8.941080 -1.894810 39.081100 -0.000007 -0.000012 -0.077314 0.246363 17.423000 40.985400 -0.000006 -0.000013 -0.769291 4.235900 -64.104200 11.754300 -0.000000 0.000003 -0.000000 -0.000006 -16.577700 -2.192510 6.469440 -0.000001 178.506000 12.476800 -179.021000 -39.081100 -0.002282 -0.040193 -0.062153 0.256255 14.334800 -40.985400 0.000008 0.000006 0.938865 7.057320 -64.024000 -11.754300 -0.000006 -0.000006 -0.004117 -0.052655 -18.715000
0.000000 0.000000 0.000000 0.000000 0.000000 -0.000000 -0.972999 92.764500 1.191970 89.221700 -2.346360 1.560420 15.735700 0.000005 -0.000001 96.642700 86.701700 -96.742100 8.984550 -0.406207 -0.000000 -1.213070 0.770697 -0.190403 16.377300 -0.000001 -0.000001 1.754040 -2.982280 3.298790 6.456720 -0.000001 -0.000000 8.621010 -2.147700 -3.873040 12.994200 -0.242716 4.980390 -90.462000 1.395780 -71.682900 5.348090 -0.000007 -0.000001 -60.551200 35.058500 -17.480400 24.328600 0.000019 0.000005 8.118730 13.018200 -32.344900 22.291600 -0.000001 0.000005 4.609940 5.454830 -4.812630 12.994500 -0.242716 -4.980390 87.691900 7.354030 -72.521500 -5.348130 -0.000001 -0.000004 -56.582000 38.244500 -17.628400 -24.328900 0.000322 -0.000009 6.946690 9.982520 -35.105900 -22.291500 -0.000108 -0.000004 7.174800 5.303760 -0.033011 -2.192480 -6.469440 -0.000000 -176.283000 -9.009500 -1.848990 39.081100 -0.000007 -0.000012 -0.077807 0.247267 17.467000 40.985400 -0.000006 -0.000013 -0.766664 4.287380 -64.090400 11.754300 -0.000000 0.000003 -0.000001 -0.000009 -16.577800 -2.192510 6.469440 -0.000001 178.529000 12.407300 -178.970000 -39.081100 -0.002282 -0.040193 -0.061492 0.253619 14.337500 -40.985400 0.000008 0.000006 0.900301 7.052790 -63.975100 -11.754300 -0.000006 -0.000006 -0.004133 -0.052814 -18.721500
0.000000 0.000000 0.000000 0.000000 0.000000 -0.000000 -0.980155 92.769700 1.086600 89.220500 -2.401830 1.650210 15.735700 0.000005 -0.000001 96.407800 86.717200 -96.526300 8.984550 -0.406207 -0.000000 -1.240770 0.741897 -0.228871 16.377300 -0.000001 -0.000001 2.018600 -2.927170 3.323280 6.456720 -0.000001 -0.000000 8.621030 -2.126620 -3.766040 12.994200 -0.242716 4.980390 -90.451900 1.348200 -71.468600 5.348090 -0.000007 -0.000001 -57.118600 29.790500 -20.223200 24.328600 0.000019 0.000005 9.111550 12.339200 -36.887900 22.291600 -0.000001 0.000005 6.165880 5.459550 -4.985480 12.994500 -0.242716 -4.980390 87.727800 7.041840 -72.065300 -5.348130 -0.000001 -0.000004 -52.715200 35.179600 -20.889800 -24.328900 0.000322 -0.000009 8.790780 9.969550 -41.769800 -22.291500 -0.000108 -0.000004 8.384100 5.309310 -0.190664 -2.192480 -6.469440 -0.000000 -176.279000 -9.050560 -1.836660 39.081100 -0.000007 -0.000012 -0.076224 0.241769 17.498700 40.985400 -0.000006 -0.000013 -0.762309 4.272740 -64.041600 11.754300 -0.000000 0.000003 -0.000001 -0.000008 -16.577800 -2.192510 6.469440 -0.000001 178.524000 12.401900 -178.988000 -39.081100 -0.002282 -0.040193 -0.063049 0.258561 14.398600 -40.985400 0.000008 0.000006 0.875721 7.080840 -63.924000 -11.754300 -0.000006 -0.000006 -0.004227 -0.053778 -18.760800
0.000000 0.000000 0.000000 0.000000 0.000000 -0.000000 -0.986510 92.773600 0.983541 89.199300 -2.463980 1.783820 15.735700 0.000005 -0.000001 96.161500 86.735800 -96.280400 8.984550 -0.406207 -0.000000 -1.274710 0.709925 -0.229799 16.377300 -0.000001 -0.000001 2.309300 -2.831580 3.333620 6.456720 -0.000001 -0.000000 8.815350 -2.039000 -3.695730 12.994200 -0.242716 4.980390 -90.358700 1.058400 -71.278400 5.348090 -0.000007 -0.000001 -54.112300 23.092900 -23.501600 24.328600 0.000019 0.000005 9.964750 11.556300 -41.251400 22.291600 -0.000001 0.000005 7.781780 5.466130 -5.228300 12.994500 -0.242716 -4.980390 87.792700 6.696320 -71.709300 -5.348130 -0.000001 -0.000004 -48.640700 30.391200 -24.665600 -24.328900 0.000322 -0.000009 10.514900 9.415040 -48.609500 -22.291500 -0.000108 -0.000004 10.110900 5.307130 -0.129563 -2.192480 -6.469440 -0.000000 -176.238000 -9.029130 -1.789170 39.081100 -0.000007 -0.000012 -0.076775 0.242729 17.552000 40.985400 -0.000006 -0.000013 -0.775804 4.222070 -64.004800 11.754300 -0.000000 0.000003 -0.000001 -0.000010 -16.577900 -2.192510 6.469440 -0.000001 178.535000 12.383900 -178.958000 -39.081100 -0.002282 -0.040193 -0.063179 0.258046 14.453100 -40.985400 0.000008 0.000006 0.873860 7.130100 -63.872500 -11.754300 -0.000006 -0.000006 -0.004245 -0.053960 -18.768200
0.000000 0.000000 0.000000 0.000000 0.000000 -0.000000 -0.979754 92.781500 0.886247 89.187000 -2.541340 1.924510 15.735700 0.000005 -0.000001 96.057900 86.775800 -96.164600 8.984550 -0.406207 -0.000000 -1.352940 0.688877 -0.205090 16.377300 -0.000001 -0.000001 2.633490 -2.703990 3.308220 6.456720 -0.000001 -0.000000 9.039070 -1.912410 -3.667980 12.994200 -0.242716 4.980390 -90.201200 0.596233 -71.355900 5.348090 -0.000007 -0.000001 -51.645700 15.612800 -26.794900 24.328600 0.000019 0.000005 10.404900 10.287700 -45.797700 22.291600 -0.000001 0.000005 9.482560 5.469010 -5.330120 12.994500 -0.242716 -4.980390 87.885400 6.277720 -71.341900 -5.348130 -0.000001 -0.000004 -45.094200 23.870000 -28.758700 -24.328900 0.000322 -0.000009 11.577200 8.283830 -54.883400 -22.291500 -0.000108 -0.000004 11.643700 5.297980 0.127854 -2.192480 -6.469440 -0.000000 -176.214000 -9.069780 -1.702740 39.081100 -0.000007 -0.000012 -0.076625 0.242172 17.557600 40.985400 -0.000006 -0.000013 -0.777033 4.178350 -63.951100 11.754300 -0.000000 0.000003 -0.000001 -0.000008 -16.577800 -2.192510 6.469440 -0.000001 178.523000 12.351400 -178.890000 -39.081100 -0.002282 -0.040193 -0.062275 0.254489 14.455900 -40.985400 0.000008 0.000006 0.850395 7.202600 -63.798200 -11.754300 -0.000006 -0.000006 -0.004269 -0.054210 -18.778400
